<svg width="102" height="21" viewBox="0 0 102 21" fill="none" xmlns="http://www.w3.org/2000/svg">
<path d="M32.7578 5.55717C29.9726 5.55717 27.6971 7.66042 27.6971 10.5509C27.6971 13.4297 29.9726 15.5447 32.7578 15.5447C35.543 15.5447 37.8186 13.4297 37.8186 10.5509C37.8186 7.66042 35.543 5.55717 32.7578 5.55717ZM32.7578 13.5824C31.2289 13.5824 29.9134 12.3369 29.9134 10.5509C29.9134 8.75317 31.2289 7.51942 32.7578 7.51942C34.2867 7.51942 35.6023 8.75317 35.6023 10.5509C35.6023 12.3369 34.2749 13.5824 32.7578 13.5824ZM21.7119 5.55717C18.9267 5.55717 16.6511 7.66042 16.6511 10.5509C16.6511 13.4297 18.9267 15.5447 21.7119 15.5447C24.4971 15.5447 26.7726 13.4297 26.7726 10.5509C26.7726 7.66042 24.4971 5.55717 21.7119 5.55717ZM21.7119 13.5824C20.183 13.5824 18.8674 12.3369 18.8674 10.5509C18.8674 8.75317 20.183 7.51942 21.7119 7.51942C23.2408 7.51942 24.5563 8.75317 24.5563 10.5509C24.5563 12.3369 23.2408 13.5824 21.7119 13.5824ZM8.58004 7.09642V9.21142H13.7C13.546 10.3982 13.143 11.2794 12.5386 11.8787C11.7919 12.6189 10.6304 13.4297 8.59189 13.4297C5.4393 13.4297 2.97411 10.9152 2.97411 7.78967C2.97411 4.66417 5.4393 2.14967 8.59189 2.14967C10.2867 2.14967 11.5311 2.80767 12.4437 3.66542L13.9489 2.17317C12.6689 0.96292 10.9741 0.034668 8.58004 0.034668C4.26596 0.034668 0.639297 3.51267 0.639297 7.80142C0.639297 12.0784 4.26596 15.5682 8.58004 15.5682C10.9149 15.5682 12.6689 14.8162 14.0437 13.3944C15.4541 11.9962 15.8926 10.0222 15.8926 8.43592C15.8926 7.94242 15.8571 7.48417 15.7741 7.10817H8.58004V7.09642ZM62.2808 8.74142C61.866 7.62517 60.586 5.55717 57.9667 5.55717C55.3712 5.55717 53.2141 7.57817 53.2141 10.5509C53.2141 13.3474 55.3474 15.5447 58.2156 15.5447C60.5267 15.5447 61.866 14.1464 62.4112 13.3357L60.6926 12.1959C60.1237 13.0302 59.3415 13.5824 58.2156 13.5824C57.0897 13.5824 56.2837 13.0654 55.7741 12.0667L62.5178 9.30542L62.2808 8.74142ZM55.4067 10.4099C55.3474 8.48292 56.9119 7.49592 58.0378 7.49592C58.9149 7.49592 59.6615 7.93067 59.9104 8.55342L55.4067 10.4099ZM49.9311 15.2509H52.1474V0.563419H49.9311V15.2509ZM46.3045 6.67342H46.2215C45.7237 6.08592 44.7756 5.55717 43.5667 5.55717C41.0423 5.55717 38.7311 7.75442 38.7311 10.5744C38.7311 13.3709 41.0423 15.5564 43.5667 15.5564C44.7637 15.5564 45.7237 15.0277 46.2215 14.4167H46.2926V15.1334C46.2926 17.0487 45.2615 18.0709 43.6023 18.0709C42.2511 18.0709 41.4097 17.1074 41.066 16.2967L39.1341 17.0957C39.6911 18.4234 41.1608 20.0449 43.6023 20.0449C46.1978 20.0449 48.3904 18.5292 48.3904 14.8397V5.86267H46.2926V6.67342H46.3045ZM43.7563 13.5824C42.2274 13.5824 40.9474 12.3134 40.9474 10.5744C40.9474 8.81192 42.2274 7.53117 43.7563 7.53117C45.2615 7.53117 46.4467 8.82367 46.4467 10.5744C46.4586 12.3134 45.2734 13.5824 43.7563 13.5824ZM72.663 0.563419H67.3652V15.2509H69.5815V9.68142H72.6749C75.1282 9.68142 77.5341 7.91892 77.5341 5.12242C77.5341 2.32592 75.1045 0.563419 72.663 0.563419ZM72.7104 7.63692H69.5697V2.59617H72.7104C74.3697 2.59617 75.306 3.95917 75.306 5.11067C75.306 6.26217 74.3697 7.63692 72.7104 7.63692ZM86.3874 5.53367C84.7874 5.53367 83.1282 6.23867 82.4408 7.77792L84.4082 8.58867C84.823 7.77792 85.6052 7.50767 86.423 7.50767C87.5726 7.50767 88.7341 8.18917 88.746 9.39942V9.55217C88.343 9.32892 87.4897 8.98817 86.4349 8.98817C84.3134 8.98817 82.1682 10.1397 82.1682 12.2899C82.1682 14.2522 83.8986 15.5212 85.8423 15.5212C87.3237 15.5212 88.1534 14.8632 88.663 14.0877H88.7341V15.2274H90.8674V9.59917C90.8793 6.99067 88.9119 5.53367 86.3874 5.53367ZM86.1149 13.5824C85.3919 13.5824 84.3845 13.2182 84.3845 12.3369C84.3845 11.2089 85.6408 10.7742 86.7311 10.7742C87.703 10.7742 88.1652 10.9857 88.746 11.2677C88.58 12.6189 87.3949 13.5824 86.1149 13.5824ZM98.6541 5.85092L96.1178 12.2194H96.0467L93.4156 5.85092H91.0334L94.98 14.7574L92.7282 19.7042H95.0393L101.119 5.85092H98.6541ZM78.743 15.2509H80.9593V0.563419H78.743V15.2509Z" fill="white"/>
</svg>
